<svg width="92" height="92" viewBox="0 0 92 92" fill="none" xmlns="http://www.w3.org/2000/svg">
<path d="M0.714286 52L4 50.2041L0 44L0.714286 52Z" fill="black"/>
<path d="M9.53425 57L13 47L2 52.5556L9.53425 57Z" fill="black"/>
<path d="M67.588 15.7071L62.35 28.8719L68.752 28.9687L72.438 24.6127L67.588 15.7071Z" fill="black"/>
<path d="M73.796 18.9983L68.849 15.9975L73.311 24.2255L85.727 26.1615L73.796 18.9983C73.796 18.9983 73.893 18.9983 73.796 18.9983Z" fill="black"/>
<path d="M69.722 41.1655L68.558 29.9367L61.962 29.8399L57.597 40.6815L69.722 41.1655Z" fill="black"/>
<path d="M88.2889 0L72.3437 17.2411L75.7354 19.6154L88.2889 0Z" fill="black"/>
<path d="M58.6932 26.8849L60.2452 30.6601L68.0052 11.5905L58.6932 26.8849Z" fill="black"/>
<path d="M56.6562 39.5657L59.7603 32.0153L58.4023 28.6273L56.6562 39.5657Z" fill="black"/>
<path d="M29.273 53.4591L27.236 56.4599L30.049 61.2031L29.273 53.4591Z" fill="black"/>
<path d="M11 56L21.2162 51.7941L23 45L14.5676 46.2941L11 56Z" fill="black"/>
<path d="M24.5094 46L23 52L31 51.6842L24.5094 46Z" fill="black"/>
<path d="M87.473 27.4199L73.214 25.1935L70.013 28.9687L86.891 29.2591L87.473 27.4199Z" fill="black"/>
<path d="M70.789 41.4559L77.191 47.9415L69.819 32.3567L70.789 41.4559Z" fill="black"/>
<path d="M35.869 70.8831L47.897 51.8135L30.146 52.4911L31.31 63.2359L35.869 70.8831Z" fill="black"/>
<path d="M74.281 61.7839C74.184 61.7839 74.184 61.7839 74.281 61.7839C74.184 61.7839 74.184 61.8807 74.184 61.8807C74.184 61.8807 74.184 61.8807 74.087 61.8807C74.087 61.8807 74.087 61.8807 73.99 61.8807C73.99 61.8807 73.99 61.8807 73.893 61.8807L66.715 62.5583L77.482 76.8847L75.736 60.5255L74.281 61.7839Z" fill="black"/>
<path d="M80.004 50.7487L82.332 53.0719L84.951 50.6519L80.004 50.7487Z" fill="black"/>
<path d="M70.11 42.2303L57.306 41.7463L56.239 48.5223L73.893 60.8159L75.736 59.0735L75.833 58.9767L81.556 53.7495L70.11 42.2303Z" fill="black"/>
<path d="M83.011 53.7495L91.838 62.6551L86.212 50.9423L83.011 53.7495Z" fill="black"/>
<path d="M52.941 62.8487L55.075 49.4903L49.158 51.7167L37.227 70.5927L52.941 62.8487Z" fill="black"/>
<path d="M32.862 77.4655L45.666 89.2751L36.869 71.8191L32.862 77.4655Z" fill="black"/>
<path d="M78.646 78.3367L84.175 85.4999L77.967 72.0447L78.646 78.3367Z" fill="black"/>
<path d="M56.045 49.5871L54.008 62.6551L72.438 61.0095L56.045 49.5871Z" fill="black"/>
<path d="M30.571 78.0135L35.287 71.8511L31.504 65.5591L30.571 78.0135Z" fill="black"/>
<path d="M35.123 91.6303L36.869 82.5311L30.862 77.8207L35.123 91.6303Z" fill="black"/>
</svg>
